<svg xmlns="http://www.w3.org/2000/svg" viewBox="0 0 2699.23 1765.68"><defs><style>.cls-1{fill:#e5e5e5;}.cls-2{opacity:0.5;}.cls-3{fill:#8fb3e3;}.cls-4{fill:#9fc4eb;}.cls-5{fill:#14213d;}.cls-6{opacity:0.4;}.cls-7{fill:#fff;}.cls-8{opacity:0.6;}.cls-9{fill:#ffb27d;}.cls-10{fill:#332933;}.cls-11{fill:#100b47;}.cls-12{fill:#68a1bf;}.cls-13{fill:#fca311;}.cls-14{fill:#331832;}.cls-15{fill:#ec865c;}.cls-16{fill:#020202;}.cls-17{fill:#e9845c;}.cls-18{fill:#080435;}.cls-19{fill:#a37431;}.cls-20{fill:#716572;}.cls-21{fill:#92a5e6;}.cls-22{fill:#ef8062;}.cls-23{fill:#daebe8;}.cls-24{fill:#ce8924;}.cls-25{fill:#acc9c5;opacity:0.21;}.cls-26{fill:#2f1a31;}</style></defs><title>404</title><g id="Layer_2" data-name="Layer 2"><g id="Layer_1-2" data-name="Layer 1"><path class="cls-1" d="M2347.33,1749.7c-224.7,28-456.2,16.34-929.21-13-265.61-16.46-799.65,10.81-1066.22,13C157.56,1751.28,0,1606.79,0,1430.5V331.08C0,154.78,157.89,1.5,351.9,11.87c180.17,9.63,445.18,47.75,721.44,24.41,328.56-27.76,952.19-51.35,1274-24.41,193.53,16.21,351.9,142.91,351.9,319.21V1430.5C2699.23,1606.79,2539.87,1725.7,2347.33,1749.7Z"/><g class="cls-2"><polygon class="cls-3" points="1796.51 593.56 1786.98 1138.55 1745.48 1431.94 1653.86 1431.08 1622.9 1430.77 1475.82 1429.36 1463.41 1250.45 1445.77 679.45 1600.85 627.85 1600.85 627.85 1796.51 593.56"/><polygon class="cls-3" points="2092.66 1435.36 2023.12 1435.36 1823.76 1432.91 1826.62 1075.35 1833.45 218.94 2068.68 397.74 2084.34 1075.35 2092.66 1435.36"/><polygon class="cls-3" points="1403.75 961.15 1403.75 1427.76 1279 1426.21 1029.33 1423.16 1011.47 882.84 1403.75 961.15"/><polygon class="cls-3" points="2194.48 1075.35 2194.48 1435.36 2023.12 1435.36 1823.76 1432.91 1745.48 1431.94 1653.86 1430.84 1658.83 905.04 2194.48 1075.35"/><polygon class="cls-3" points="2305.11 625.17 2305.09 626.88 2298.76 1435.36 2134.39 1435.36 2138.72 1075.35 2143.56 671.64 2305.11 625.17"/><polygon class="cls-3" points="1622.9 1199.38 1622.9 1430.44 1475.82 1428.63 1403.75 1427.76 1279 1426.21 1279 1199.38 1622.9 1199.38"/><polygon class="cls-4" points="1699.53 737.09 1673.44 733.17 1672.01 679.23 1699.53 677.25 1699.53 737.09"/><polygon class="cls-4" points="2037.34 685.01 2011.25 681.1 2009.83 627.15 2037.34 625.18 2037.34 685.01"/><polygon class="cls-4" points="1910.41 786.23 1884.33 782.31 1882.9 728.37 1910.41 726.39 1910.41 786.23"/><polygon class="cls-4" points="1910.41 432.38 1884.33 428.47 1882.9 374.52 1910.41 372.55 1910.41 432.38"/><polygon class="cls-4" points="1937.93 991.07 1911.84 987.16 1910.41 933.21 1937.93 931.24 1937.93 991.07"/><polygon class="cls-4" points="1699.53 1135.18 1673.44 1131.26 1672.01 1077.32 1699.53 1075.35 1699.53 1135.18"/><polygon class="cls-4" points="1650.43 1016.78 1624.34 1012.87 1622.91 958.92 1650.43 956.95 1650.43 1016.78"/><polygon class="cls-3" points="805.55 483.65 797.98 1075.35 793.58 1420.27 701.8 1419.14 670.85 1418.74 523.12 1416.95 511.36 1199.38 473.87 506.42 543.04 501.66 719.96 489.51 805.55 483.65"/><polygon class="cls-3" points="1140.35 1424.53 1029.33 1423.16 921.02 1421.82 871.79 1421.21 874.56 1075.35 881.4 218.94 1116.62 397.74 1132.28 1075.35 1140.35 1424.53"/><polygon class="cls-3" points="451.7 961.15 451.7 1416.06 405.77 1415.51 344.57 1414.74 345.97 1199.38 347.58 955.84 451.7 961.15"/><polygon class="cls-3" points="1242.43 1075.35 1242.43 1425.76 1182.45 1425.03 1140.35 1424.53 1029.33 1423.16 921.02 1421.82 871.79 1421.21 793.58 1420.27 701.8 1419.14 701.8 1075.35 1242.43 1075.35"/><polygon class="cls-3" points="1353.06 691.9 1353.03 693.47 1346.78 1427.05 1336.18 1426.93 1279 1426.28 1242.43 1425.87 1182.45 1425.19 1186.67 1104.62 1191.5 734.5 1353.06 691.9"/><polygon class="cls-3" points="670.85 1199.38 670.85 1418.74 523.12 1416.95 451.7 1416.06 405.77 1415.51 344.57 1414.74 345.97 1199.38 670.85 1199.38"/><polygon class="cls-3" points="719.96 523.96 545.7 523.96 536.53 446.83 719.96 446.83 719.96 523.96"/><polygon class="cls-3" points="670.86 485.39 594.8 485.39 594.8 303.22 676.39 296.51 670.86 485.39"/><rect class="cls-3" x="625.95" y="192.78" width="13.76" height="182.17"/><polygon class="cls-4" points="554.87 620.61 528.89 620.61 527.36 562.75 554.87 566.3 554.87 620.61"/><polygon class="cls-4" points="747.47 737.09 721.38 733.17 719.96 679.23 747.47 677.25 747.47 737.09"/><polygon class="cls-4" points="1085.28 685.01 1059.19 681.1 1057.77 627.15 1085.28 625.18 1085.28 685.01"/><polygon class="cls-4" points="985.87 991.07 959.78 987.16 958.36 933.21 985.87 931.24 985.87 991.07"/><polygon class="cls-4" points="747.47 1135.18 721.38 1131.26 719.96 1077.32 747.47 1075.35 747.47 1135.18"/><polygon class="cls-4" points="698.37 1016.78 672.28 1012.87 670.86 958.92 698.37 956.95 698.37 1016.78"/></g><ellipse class="cls-5" cx="1323.24" cy="1471.52" rx="1170.86" ry="111.33"/><g class="cls-6"><path class="cls-7" d="M1432.28,158.51S1409,113.67,1350,119.29s-52,50.57-80.07,46.35-67.43,0-75.86,28.1-46.36,12.65-47.77,36.53,43.55,40.74,95.53,19.67,77.27,16.37,150.32,9.59,82.1-15.21,125.34-11,42.21-25.39,22.55-45.06S1440.71,185.68,1432.28,158.51Z"/></g><g class="cls-8"><path class="cls-7" d="M2280.42,501.6s-11.51-22.13-40.63-19.36-25.65,25-39.51,22.88-33.28,0-37.44,13.86-22.87,6.24-23.57,18,21.49,20.1,47.14,9.7,38.13,8.08,74.18,4.74,40.52-7.51,61.86-5.43,20.83-12.53,11.12-22.24S2284.58,515,2280.42,501.6Z"/></g><g class="cls-8"><path class="cls-7" d="M364.4,346.8s-19.33-37.18-68.24-32.52-43.09,41.93-66.38,38.43-55.9,0-62.88,23.29-38.43,10.48-39.6,30.28,36.1,33.77,79.19,16.31,64.05,13.57,124.61,8,68.06-12.61,103.9-9.12,35-21.05,18.69-37.35S371.39,369.32,364.4,346.8Z"/></g><g class="cls-8"><path class="cls-7" d="M1658,288.48s-15.29-29.42-54-25.73-34.09,33.17-52.52,30.4-44.22,0-49.75,18.43-30.41,8.3-31.33,24,28.56,26.72,62.66,12.9,50.67,10.73,98.58,6.29,53.85-10,82.21-7.21,27.69-16.66,14.79-29.56S1663.57,306.29,1658,288.48Z"/></g><path class="cls-9" d="M870.87,788.22c31.37,6,66.89.35,105.68-16.71a295.56,295.56,0,0,0,50.94-28.66l-34.27-49.07,17.14,24.54-17.09-24.58c-17.85,13-73.2,44.4-114.58,34.22-18.78-4.63-33.27-17.64-44.3-39.79L781.54,716c18.77,37.69,47.49,62.2,83.06,70.88Q867.71,787.63,870.87,788.22Z"/><path class="cls-9" d="M946.39,749.35s19.49-29,39.3-38,32.37-1.53,32.37-1.53l21.26-8.49s3,80.65-52.2,66.45C982.76,766.68,946.39,749.35,946.39,749.35Z"/><path class="cls-10" d="M1036.16,659.32l-20.31,116.91a13.79,13.79,0,0,1-16.32,11.15l-54.41-11a13.78,13.78,0,0,1-10.85-15.87l20-115.21A13.79,13.79,0,0,1,970.18,634l54.71,9.33A13.79,13.79,0,0,1,1036.16,659.32Z"/><path class="cls-11" d="M1027.65,655.69a3.64,3.64,0,1,0-3.53,3.73A3.64,3.64,0,0,0,1027.65,655.69Z"/><path class="cls-9" d="M1046.16,692.8s5.61-12.29-5.65-17.32c-14.33-6.42-38.34-.66-29.32,3.53,8,3.71,20.64,6.26,20.64,6.26s-32.21-6-31.18,1.08,28.8,11.93,28.8,11.93-31.91-2.92-28.76,3.49S1029,712.71,1029,712.71s-31-4.54-27.2,2.82,20.36,6.45,27.45,7.66c6.7,1.15,9.61-2.79,10.25-9.33,0,0,4.43-6.14,3.77-10.52-.25-1.68,1.53-3,1.87-4.15A42.33,42.33,0,0,0,1046.16,692.8Z"/><path class="cls-10" d="M748.49,1453.17s.51,20.49,14.37,26.27,54,11,39,24.16c-8.61,7.56-49.19,2.68-60.65,2.68s-22.22,5-30.73-2.68c-9.37-8.44,0-50.43,0-50.43s9.88,5.15,18.78,4.92C742.09,1457.76,748.49,1453.17,748.49,1453.17Z"/><path class="cls-10" d="M589.29,1453.17s.52,20.49,14.38,26.26,54,11,39,24.17c-8.61,7.56-49.2,2.67-60.66,2.67s-22.22,5-30.73-2.67c-9.37-8.44,0-50.43,0-50.43s9.89,5.15,18.78,4.92C582.9,1457.76,589.29,1453.17,589.29,1453.17Z"/><path class="cls-12" d="M851.52,891.57s2.56,85.75-24.81,250.26c-19.76,118.76-43.08,238.43-54.53,295.8-4.09,20.52-21.35,35.53-41.81,36.35l-11,.44c-22.12.88-40.07-18.12-38.45-40.7l27.76-388.15,6.85-127.75Z"/><path class="cls-10" d="M601.15,967c1.26,10.43,60.28,9.17,132.54,0s128.5-24.8,127.23-35.24-59.55-11.7-131.8-2.56S599.89,956.6,601.15,967Z"/><path class="cls-12" d="M768.56,952.82,614.3,1448.37a49.74,49.74,0,0,1-46.41,35.32l-9.27.16C536.73,1484.22,520,1464,524,1442l84.39-465.63A15.35,15.35,0,0,1,619,964.84C648,956.5,771.4,932.33,768.56,952.82Z"/><path class="cls-9" d="M591.32,932l35-40.63C625.67,891,557,847.67,563.59,786,567,753.78,586.3,727.9,620.91,709a198.65,198.65,0,0,1,54.85-19.77l-8.23-52.71a248,248,0,0,0-71.15,25.38c-50,27.29-79.32,68.18-84.65,118.25-4.31,40.44,9.83,80.65,40.89,116.29C574.9,922,573.91,923.56,591.32,932Z"/><path class="cls-13" d="M625.28,681.73S645.8,624,718.92,626.61s128.33,98.71,142,305.21c0,0-119.72-26.25-260,35C600.94,966.82,593.16,765.9,625.28,681.73Z"/><path class="cls-13" d="M567.86,669.52l57.87,41.89s133.15,13.32,168.49,6.91,45-35,45-35S801.62,640.41,737.64,629a176.86,176.86,0,0,0-18.72-2.35,181.63,181.63,0,0,0-32.34.71C623.36,634.14,567.86,669.52,567.86,669.52Z"/><path class="cls-14" d="M567.86,669.52c-3.14,4.54,7.27,17.59,23.25,29.16s31.48,17.27,34.62,12.73-7.28-17.59-23.26-29.16S571,665,567.86,669.52Z"/><path class="cls-15" d="M528.46,800.08c-5.29,0-9.6-6.06-9.6-13.52h0c0-7.45,4.31-13.52,9.6-13.52s9.61,6.07,9.61,13.52a16.75,16.75,0,0,1-2.66,9.38c-1.82,2.67-4.29,4.14-6.95,4.14Zm-7.07-13.52c0,6,3.24,11,7.07,11a6,6,0,0,0,4.85-3,14.28,14.28,0,0,0,2.22-8c0-5.95-3.23-11-7.07-11S521.39,780.61,521.39,786.56Z"/><path class="cls-9" d="M686.71,627.31a21.76,21.76,0,0,0,17.72-13l9.75-22.63,2.82-6.57,16.63-38.63-2.88,40-1.73,24-.5,6.85a10.93,10.93,0,0,0,9,11.52l.1,0c3,4.81,7,14.59-5.17,18.48-14.35,4.57-37.56-6.73-45.89-20.12Z"/><path class="cls-9" d="M598.09,873.48s21.67-19.83,38.77-18.08,37.63,16.92,26.8,18.08-25.09-1.16-25.09-1.16,30.22,6.41,25.66,12.83-30.79.58-30.79.58,35.35,10.5,29.08,15.17-33.07-3.5-33.07-3.5,32.5,11.08,25.08,16.33-26.79-9.33-31.35-2.91-13.12,31.5-32.5,21Z"/><path class="cls-16" d="M699.61,1174.31l33.18-100.85a95.6,95.6,0,0,1,43.21-53.3l-1.29-2.25a98.21,98.21,0,0,0-44.38,54.74L697.15,1173.5Z"/><path class="cls-9" d="M615.06,712.19s3.2-9.63-11.34-20.35-33.38-13.12-33.38-13.12l-3.82,18.37,20.53,9Z"/><path class="cls-10" d="M688.39,539.92s1.55,6.57-2.23,20c-5.52,19.7,17,27.93,22.75,22.3.71-.69-.23-34.2-.23-34.2l-7.2-4.27Z"/><path class="cls-14" d="M714.13,591c0,.22,0,.44,0,.67,1,12.9,14.75,18.93,14.75,18.93l.09-.07,1.73-24c-4.22-1.55-10.23-3.14-13.75-1.4C715.16,586,714,587.85,714.13,591Z"/><ellipse class="cls-9" cx="735.45" cy="552.91" rx="37.61" ry="46.4"/><path class="cls-7" d="M743.66,582.44c-6,.38-6.38,5.38-1,4.75S747.73,582.19,743.66,582.44Z"/><path class="cls-10" d="M750.35,517.3c-1.05,1.42,4.87,25.29-39.35,31s-17.65-47.95,15-49.16c47.11-1.75,54,29.92,49.44,41.32S750.35,517.3,750.35,517.3Z"/><path class="cls-10" d="M682.19,488s19.87,13.29,4.59,25.8-57.31,18-45.85,39.08,21.39,52.38.77,56.28-33.62,2.35-42,18.76-45.85,6.26-42.79-13.29-29-36.74-15.28-54.72S589,526.25,597.39,502.8,666.15,477.79,682.19,488Z"/><path class="cls-10" d="M715.88,540.69s-18.08,19-11.81,38.53c0,0-10.48-11.45-10.71-15.73s2.55-19.71,2.55-19.71Z"/><path class="cls-9" d="M702.87,559.91c4.26,4.07,10.22,4.48,13.31.93s2.13-9.73-2.13-13.8-10.21-4.48-13.3-.93S698.61,555.84,702.87,559.91Z"/><path class="cls-7" d="M566.06,634.24a.87.87,0,0,0,.32-.06c5.33-2.06,8.5-4.66,9.68-7.94,1.8-5-1.28-10.48-4.53-16.28-2.85-5.08-5.8-10.33-5.09-15.05.83-5.56,8.14-6.86,15.88-8.24,6.52-1.16,13.27-2.36,15.94-6.52,1.27-2,1.53-4.5.76-7.48-.86-3.29-1.9-6.24-2.91-9.09-4.35-12.25-7.78-21.92,11.42-44.08,24.63-28.41,45-29.78,63.41-27,2.14.32,7.59,3.13,7.56,5.62,0,1.29-1.78,4.5-17.71,6.5-.31.06-22.65,5.27-33.41,29.38-5.73,12.84,2.41,26.58,9,37.62,4.39,7.41,8.18,13.81,7,18.1a6.2,6.2,0,0,1-3.33,3.78c-4.46,2.43-9.46,3.78-14.3,5.09-12.44,3.36-25.3,6.84-26.92,29.25a.91.91,0,0,0,.83,1,.89.89,0,0,0,1-.83c1.52-21.14,13.22-24.3,25.6-27.65,4.93-1.34,10-2.72,14.68-5.24a8,8,0,0,0,4.21-4.88c1.39-5-2.58-11.73-7.18-19.49-6.66-11.25-14.21-24-8.86-36a50.63,50.63,0,0,1,32.07-28.35c12.85-1.61,19.15-4.31,19.2-8.24s-6.74-7.06-9.09-7.41c-18.88-2.83-39.83-1.44-65,27.63-19.89,22.94-16.3,33-11.76,45.85,1,2.81,2,5.72,2.86,8.94.65,2.51.48,4.49-.52,6.06-2.26,3.51-8.61,4.64-14.75,5.73-8,1.43-16.32,2.9-17.35,9.74-.8,5.32,2.31,10.84,5.31,16.19s5.93,10.56,4.4,14.8c-1,2.76-3.82,5-8.63,6.87a.89.89,0,0,0,.32,1.73Z"/><path class="cls-7" d="M710.65,534.22h0c17-.36,25.46-13.75,25.82-14.32a.89.89,0,0,0-.29-1.23A.9.9,0,0,0,735,519c-.08.13-8.32,13.13-24.33,13.47a.9.9,0,0,0,0,1.79Z"/><path class="cls-17" d="M638.35,872.91l.44-1.19c-.35-.13-8.68-3.19-13.3.08l.74,1C630.3,870,638.27,872.88,638.35,872.91Z"/><path class="cls-17" d="M633.21,886.32l.46-1.18c-.33-.13-8.36-3.23-15.67,0l.52,1.16C625.34,883.28,633.13,886.29,633.21,886.32Z"/><path class="cls-17" d="M629.22,898l.45-1.18c-.42-.16-10.26-3.8-14.89.1l.82,1C619.66,894.46,629.13,898,629.22,898Z"/><path class="cls-12" d="M850.22,941.17s-33.59-4.67-84-.94a855.68,855.68,0,0,0-144.44,23.85l24.79,4.17L801.8,974.4l31.25-25.63Z"/><path class="cls-18" d="M739.09,553.36a.86.86,0,0,0,.1-1.62,9.28,9.28,0,0,0-11.08,2.47.86.86,0,0,0,0,1.21,1,1,0,0,0,1.21,0,14.62,14.62,0,0,1,9.2-2.06A.84.84,0,0,0,739.09,553.36Z"/><path class="cls-18" d="M732.32,562.76c-.06,2,1.08,3.73,2.56,3.78s2.74-1.57,2.8-3.61-1.08-3.73-2.56-3.78S732.39,560.72,732.32,562.76Z"/><path class="cls-18" d="M769.63,557.82a.87.87,0,0,0,.72-.25.85.85,0,0,0,0-1.21,9.26,9.26,0,0,0-11.18-1.94.86.86,0,0,0-.43,1.13.93.93,0,0,0,1.13.44,14.62,14.62,0,0,1,9.29,1.6A.86.86,0,0,0,769.63,557.82Z"/><path class="cls-18" d="M759.79,563.93c-.84,1.87-.43,3.87.93,4.48s3.12-.41,4-2.28.42-3.86-.93-4.47S760.62,562.07,759.79,563.93Z"/><rect class="cls-14" x="807.1" y="677.8" width="1.79" height="36.55" transform="translate(-232.82 463.52) rotate(-28.15)"/><path class="cls-19" d="M1252.57,1007.64c-36.6,2.51-51.54,14-51.54,14,4.87,37.3-1.13,27-13.13,53.47s15.59,43.83,13.13,50.49c-32.46,22-84,73.37-84,73.37,21.34,29.07,66.92,3.24,66.92,3.24,140.67-33.18,182.67-72.61,158.67-101.94S1252.57,1007.64,1252.57,1007.64Z"/><path class="cls-10" d="M2160.46,1428.72s-71.92,2.25-80.79-13.83c-32.59-59.16,1.29-196.34,39.78-230.67s67,25.56,67,25.56Z"/><path class="cls-20" d="M2195.53,1230.36s-13.15-48.31-42.38-33.21-27.76,230.69,7.31,231.57S2210.14,1298.28,2195.53,1230.36Z"/><path class="cls-21" d="M2185.71,1248.59s-8-37.45-25.75-25.75-16.88,178.85,4.44,179.53S2194.59,1301.25,2185.71,1248.59Z"/><path class="cls-10" d="M1881.93,1495.05s-96.19,6.43-106.12-14.32c-31.53-65.86-62.76-245,48.17-303.19,96-50.32,122,77,122,77Z"/><path class="cls-20" d="M1928.46,1250.42s-17.45-59.57-56.22-41-36.84,284.5,9.69,285.58S1947.85,1334.19,1928.46,1250.42Z"/><path class="cls-21" d="M1915.44,1272.9s-10.61-46.18-34.17-31.75-22.39,220.57,5.89,221.41S1927.22,1337.85,1915.44,1272.9Z"/><path class="cls-10" d="M1295.67,1262.57a82.77,82.77,0,0,0-12.11-21.86h0s-37.78-63.65-88.85-27.17-33,231.35-22,248.76,76.41,11.11,76.41,11.11C1295.67,1474.35,1315.06,1334.77,1295.67,1262.57Z"/><path class="cls-22" d="M1266.37,980.73s-31.57,13.08-65.34,40.95c29.3,11.25-.33,52.12,11.32,68,78.38,1.16,46.61,63.18-91,107.42,0,0-14.73,2.27-20.4,31.72s23.79,167.68,45.32,171.07,641.23,21.53,657.09,12.47,31.73-30.59,30.59-82.71,13.19-160.67,58.91-156.06c39.1,3.93,48.48,133.06,39.1,214.42-4.65,40.34,52.67-16.44,102.52-21s82.53,3,84.8-25.34-5-149.25,38.13-151.14c40.74-1.78,43.73,81.7,43.73,81.7,4.54-5.66,10.08-70.08-2.39-98.67s5.67-145.29-23.79-162.29S2167,818.73,1998.24,784.74s-512.08-21.16-578.93,16S1266.37,980.73,1266.37,980.73Z"/><path class="cls-13" d="M1266.37,980.73s-31.57,13.08-65.34,40.95c29.3,11.25-.33,52.12,11.32,68,78.38,1.16,46.61,63.18-91,107.42,0,0-14.73,2.27-20.4,31.72s23.79,167.68,45.32,171.07,641.23,21.53,657.09,12.47,31.73-30.59,30.59-82.71,13.19-160.67,58.91-156.06c39.1,3.93,48.48,133.06,39.1,214.42-4.65,40.34,52.67-16.44,102.52-21s82.53,3,84.8-25.34-5-149.25,38.13-151.14c40.74-1.78,43.73,81.7,43.73,81.7,4.54-5.66,10.08-70.08-2.39-98.67s5.67-145.29-23.79-162.29S2167,818.73,1998.24,784.74s-512.08-21.16-578.93,16S1266.37,980.73,1266.37,980.73Z"/><path class="cls-14" d="M1549.38,1178.14H1311.74a41.94,41.94,0,0,1-29.87-12.38l-4.83-4.82a32.94,32.94,0,0,0-23.46-9.72h-21.8v-9.06h21.8a42,42,0,0,1,29.87,12.37l4.83,4.83a33,33,0,0,0,23.46,9.71h237.64a33.31,33.31,0,0,0,15.95-4.08l32.16-17.63a42.37,42.37,0,0,1,20.3-5.2h31.85v9.06h-31.85a33.32,33.32,0,0,0-16,4.09l-32.15,17.63A42.4,42.4,0,0,1,1549.38,1178.14Z"/><path class="cls-10" d="M1885.24,797.09a18.13,18.13,0,0,1,16,21.69c-3.74,18.49-8.83,49.09-9.54,81.52-1.13,52.11,26.06,83.83-60,89.5s-556.1,7.71-552.7-8.15S1401.19,814.57,1435.17,804C1465.36,794.61,1798.19,789.08,1885.24,797.09Z"/><path class="cls-10" d="M1201,1331.18c0,15-11,31-28.14,31s-28.13-16-28.13-31,13.86-29.07,31-29.07S1201,1316.17,1201,1331.18Z"/><path class="cls-10" d="M1744.28,1331.18c0,15-11,31-28.13,31s-28.14-16-28.14-31,13.87-29.07,31-29.07S1744.28,1316.17,1744.28,1331.18Z"/><path class="cls-10" d="M1101,1228.84s-3,23.79,43.81,30,87.61-5.1,98.94,33.42-11.33,74.77,63.44,85,265.94,21.52,276.85-9.07-11.74-81.57,35.84-90.63,156.34,2.26,182.4-12.46,27.19-32.86,11.33-45.32-607.25-11.33-640.67-11.33S1101,1205.05,1101,1228.84Z"/><polygon class="cls-23" points="1295.83 1252.61 1555.26 1238.36 1555.26 1297.95 1290.73 1297.95 1295.83 1252.61"/><path class="cls-14" d="M2070.84,1056.05c2.77,9.94-.47,19.54-7.25,21.43s-14.53-4.64-17.3-14.58.47-19.54,7.25-21.43S2068.07,1046.1,2070.84,1056.05Z"/><path class="cls-14" d="M2165.85,1045.33c2.77,9.94-.48,19.54-7.26,21.43s-14.52-4.64-17.29-14.58.47-19.54,7.25-21.43S2163.07,1035.38,2165.85,1045.33Z"/><path class="cls-10" d="M2130.19,977s.6-86.86-48.5-122.36S1961.6,803.24,1948,813.82s-15.86,149.54-3.78,163.14S2117.5,990.55,2130.19,977Z"/><path class="cls-20" d="M1979,1014.15s-22.1-20.95-10.77-56.08,98.57-11.32,107.63,6.24-26.62,47.58-50.41,52.68-18.7,48.15-36.82,45.88-32.53-14.73-23.63-22.66S1990.31,1021,1979,1014.15Z"/><ellipse class="cls-7" cx="1707.26" cy="1119.52" rx="66.07" ry="43.22" transform="translate(-324.18 1322.72) rotate(-38.97)"/><path class="cls-20" d="M1856.81,883.33s14.43-54.08,6.41-63.43-78.12-15.36-78.12-6,27.57,14.68,34.82,32.38S1852.74,900.62,1856.81,883.33Z"/><path class="cls-24" d="M1214.4,1044.28c3.43.5,7,1.15,10.84,2a287,287,0,0,1-2,28.84s22.12,1.42,36.83,27.16c0,0,12.66,55,18.91,6s98.26-1,94.26-10c0,0-54-32-100-19-36-1-48-5-12-26,0,0-21-32-60.21-31.63C1212.14,1026,1214.78,1034.47,1214.4,1044.28Z"/><path class="cls-24" d="M1177.24,1181.86c28,7.55,19,14.45,46,20.39s67-2.94,102-14.94-44-5-77-5c-24.26,0-21-14.59-43.73-20.4-21.08,12-48.82,24.17-83.15,35.21A13.05,13.05,0,0,0,1117,1199h0C1159.73,1212.72,1149.24,1174.31,1177.24,1181.86Z"/><path class="cls-7" d="M1244,1119.52l-7.77,17.79-18.5-8.68,6,8.68s-3.5,12-6,10.5-23-14.5-21.5-12.5l9.5,12.63-4.71,5.87-10.46,4-8.83-5.5-5.63,9.56c12,6.94,25.05,11.08,37.31,11.08C1260.49,1173,1244,1119.52,1244,1119.52Z"/><path class="cls-7" d="M1100.25,1435.31c-1,4-47,71-47,71s63.49-8.63,63.74-10.32S1100.25,1435.31,1100.25,1435.31Z"/><path class="cls-7" d="M1160.43,1489.31c2.81,3,32.81,55-16.19,63s-19-20-19-20l24-1a228.34,228.34,0,0,1-15-35.32Z"/><polygon class="cls-7" points="1133.24 1464.31 1156.24 1464.31 1156.24 1482.31 1129.24 1474.52 1133.24 1464.31"/><path class="cls-7" d="M1022.24,1553.75l37-11.44s11.18,15.71-6,11.44A63.17,63.17,0,0,0,1022.24,1553.75Z"/><path class="cls-7" d="M1014.24,1512.31s-17-54.58,0-37.79l17,16.79Z"/><polygon class="cls-7" points="1231.78 1521.53 1277.24 1537.31 1248.7 1542.31 1231.78 1521.53"/><path class="cls-7" d="M1180.24,1554.48c-3,3.83-37.5,18.83-37.5,18.83l47.5-9.41Z"/><polygon class="cls-7" points="1190.24 1526.31 1212.4 1531.92 1201.32 1521.53 1190.24 1526.31"/><path class="cls-7" d="M1277.24,1502.31l-8,10s-13-4-9-5,21-11.32,21-11.32Z"/><polygon class="cls-7" points="1303.13 1531.92 1323.24 1554.48 1323.24 1542.31 1303.13 1531.92"/><path class="cls-7" d="M1201,1496c1.21,2.32,24.46,0,24.46,0v10.32Z"/><polygon class="cls-7" points="1042.53 1452.31 1062.82 1464.31 1062.82 1452.31 1042.53 1452.31"/><path class="cls-25" d="M1164.49,1110.23c-52.48-55.24-14.82-154.48,0-186.47,33.71-72.75,3.9-157.33-25.51-186.47,102.77,60.23,66.67,147.56,33,215.65C1125.13,1047.7,1164.49,1110.23,1164.49,1110.23Z"/><path class="cls-5" d="M1050.36,332.45c-6.86-127,101.33-220.71,227.14-227.51,182.2-9.85,250.33,89.75,257.2,216.79S1402,546.54,1276.23,553.33,1057.22,459.48,1050.36,332.45Z"/><path class="cls-5" d="M1021.56,538.5s79-16.72,80.33-97l65.07,42.8S1141.06,559.41,1021.56,538.5Z"/><path class="cls-26" d="M1142.14,543c-36,30.46-86.72,29.34-123.11,23l-8.74-1.53,8.68-1.84c.59-.13,58.93-13.12,74.9-67.55-28.29-38.52-44.7-85.78-47.45-136.73-3.27-60.42,19.58-117.31,64.34-160.18,43-41.18,101.39-65.73,164.42-69.14,85.78-4.64,151.61,14.73,195.64,57.55,38.29,37.24,59.61,91.36,63.37,160.86,3.2,59.27-25.25,116.91-80.11,162.31-49.68,41.12-117,67.7-180,71.11C1225.88,583.45,1180.29,570.37,1142.14,543Zm-29-342.38c-44,42.17-66.5,98.11-63.29,157.52,2.73,50.58,19.09,97.45,47.29,135.55l.51.68-.24.81c-12.78,45-53.34,63-70.23,68.62,35.24,5.09,81.1,4.12,113.74-24.29l1-.9,1.11.81c37.72,27.43,83,40.56,130.85,38,62.31-3.36,128.84-29.65,178-70.32,54-44.68,82-101.32,78.86-159.47-3.7-68.61-24.68-122-62.33-158.59-43.32-42.12-108.27-61.16-193.06-56.58C1213.15,135.81,1155.54,160,1113.14,200.64Z"/><path class="cls-7" d="M1197.13,242.12V359.86h26.45V376h-26.45v42h-18.62V376h-82.43v-15.9a577.63,577.63,0,0,0,44.62-58,562.06,562.06,0,0,0,35.76-59.95Zm-18.62,117.74v-87l-2.5-.57a578.91,578.91,0,0,1-59.27,87.54Z"/><path class="cls-7" d="M1239.14,333.64q0-46.56,15.15-70.51t43.77-24q54.84,0,54.84,90.15,0,43.83-15,67.73T1294.09,421q-26.8,0-40.88-22.94T1239.14,333.64Zm19.3-1q0,72.21,37.69,72.21,37.35,0,37.36-73.23,0-76.18-36.45-76.18Q1258.43,255.41,1258.44,332.61Z"/><path class="cls-7" d="M1466.66,242.12V359.86h26.46V376h-26.46v42H1448V376h-82.42v-15.9a577.63,577.63,0,0,0,44.62-58A562.06,562.06,0,0,0,1446,242.12ZM1448,359.86v-87l-2.49-.57a578.91,578.91,0,0,1-59.27,87.54Z"/></g></g></svg>